<?xml version="1.0" standalone="no"?>
<!DOCTYPE svg PUBLIC "-//W3C//DTD SVG 20010904//EN"
 "http://www.w3.org/TR/2001/REC-SVG-20010904/DTD/svg10.dtd">
<svg version="1.0" xmlns="http://www.w3.org/2000/svg"
 width="490.000000pt" height="490.000000pt" viewBox="0 0 490.000000 490.000000"
 preserveAspectRatio="xMidYMid meet">

<g transform="translate(0.000000,490.000000) scale(0.100000,-0.100000)"
fill="#000000" stroke="none">
<path d="M2430 4364 c-115 -14 -285 -80 -416 -164 -26 -16 -55 -30 -63 -30 -8
0 -36 21 -62 46 -38 38 -55 47 -92 51 -50 6 -97 -2 -97 -17 0 -5 18 -21 40
-37 30 -21 40 -35 40 -55 0 -24 -4 -28 -29 -28 -17 0 -33 5 -36 10 -8 14 -111
13 -150 -1 -18 -7 -38 -21 -44 -32 -12 -19 -11 -20 38 -13 57 7 101 0 101 -18
0 -7 -41 -40 -91 -75 -106 -74 -218 -177 -262 -241 -17 -25 -33 -47 -37 -50
-35 -30 -120 -267 -120 -336 0 -31 3 -34 28 -34 15 0 33 5 39 11 16 16 49 3
35 -14 -5 -6 -20 -52 -32 -101 -26 -103 -24 -248 2 -326 9 -25 22 -74 29 -109
11 -49 20 -69 40 -84 18 -12 31 -36 39 -66 59 -238 94 -321 160 -382 32 -29
55 -40 133 -58 101 -24 241 -25 321 -3 110 30 243 125 307 219 17 24 48 98 70
165 21 67 47 130 56 140 28 32 123 18 138 -21 4 -9 18 -54 31 -101 45 -152 96
-233 192 -303 63 -46 108 -70 162 -86 25 -7 58 -17 74 -22 62 -19 266 -1 349
30 41 16 107 88 133 146 13 28 34 94 48 146 31 124 47 160 85 191 26 22 31 34
31 68 0 25 8 53 19 68 60 84 56 304 -8 522 -21 74 -136 415 -150 445 -73 163
-103 204 -220 308 -17 15 -33 27 -37 27 -3 0 -26 14 -50 31 -102 70 -292 142
-444 168 -74 12 -248 21 -300 15z m78 -657 c60 -29 100 -77 159 -192 5 -11 15
-30 21 -42 7 -13 12 -32 12 -44 0 -23 17 -59 28 -59 20 0 45 106 44 187 -1 55
2 83 10 83 6 0 27 -17 47 -38 62 -65 81 -125 81 -255 0 -53 -4 -99 -10 -102
-15 -9 -13 -58 3 -53 25 9 83 99 100 156 9 32 17 84 17 115 0 31 4 57 10 57 5
0 24 -21 41 -47 18 -27 36 -50 39 -53 17 -13 280 -422 280 -435 0 -3 -111 -5
-247 -5 -290 0 -354 -9 -586 -81 -62 -19 -76 -20 -160 -10 -51 6 -114 19 -142
29 -27 10 -77 24 -110 31 -33 7 -79 17 -102 22 -23 5 -154 9 -292 9 -228 0
-283 5 -251 25 5 3 10 15 10 25 0 20 27 74 61 121 10 15 42 41 69 59 53 34 67
54 90 130 13 42 66 149 79 160 4 3 21 24 40 48 39 50 111 102 141 102 12 0 31
-5 42 -11 16 -9 33 -5 87 21 36 18 75 36 86 40 11 5 29 12 40 16 87 34 183 30
263 -9z m702 -802 c162 -20 200 -46 200 -133 0 -64 -27 -290 -46 -389 -8 -39
-60 -89 -106 -101 -70 -18 -188 -24 -263 -13 -92 13 -202 68 -252 125 -67 77
-123 214 -123 304 0 74 62 147 143 172 23 7 53 16 67 21 30 11 262 28 305 23
17 -2 50 -6 75 -9z m-1165 -15 c129 -34 153 -48 181 -102 24 -46 15 -187 -17
-265 -21 -53 -33 -72 -67 -112 -46 -54 -102 -92 -175 -120 -49 -18 -79 -21
-199 -21 -125 0 -144 2 -179 22 -61 34 -73 68 -99 293 -6 44 -13 116 -16 160
-5 74 -4 82 18 106 24 27 47 35 138 49 72 11 364 4 415 -10z"/>
<path d="M1712 1049 c-123 -57 -291 -289 -360 -494 -43 -130 -68 -267 -78
-428 l-6 -107 1166 0 1166 0 0 81 c0 284 -108 610 -266 801 -66 80 -181 168
-220 168 -7 0 -43 -29 -80 -66 -88 -83 -225 -180 -334 -234 -161 -81 -239 -95
-361 -66 -68 16 -109 34 -230 99 -58 30 -181 121 -261 191 -48 42 -88 76 -90
76 -2 -1 -22 -10 -46 -21z m1431 -558 c14 -11 17 -32 17 -104 0 -123 -4 -127
-131 -127 -127 0 -129 2 -129 121 0 122 6 128 133 126 63 -1 99 -7 110 -16z"/>
<path d="M2939 464 c-10 -13 -10 -17 2 -25 8 -5 17 -9 20 -9 13 0 31 29 24 40
-9 15 -31 12 -46 -6z"/>
<path d="M3085 470 c-7 -11 11 -40 24 -40 3 0 12 4 20 9 12 8 12 12 -2 25 -18
18 -33 20 -42 6z"/>
<path d="M2986 418 c-9 -12 -16 -28 -16 -35 0 -21 38 -53 63 -53 30 0 67 31
67 57 0 50 -85 73 -114 31z"/>
<path d="M2941 331 c-12 -8 -12 -12 -2 -25 15 -18 21 -19 40 -7 12 8 12 12 2
25 -15 18 -21 19 -40 7z"/>
<path d="M3092 328 c-26 -26 2 -44 33 -21 17 12 18 15 5 23 -20 13 -24 12 -38
-2z"/>
</g>
</svg>
